<svg width="25" height="23" viewBox="0 0 25 23" fill="none" xmlns="http://www.w3.org/2000/svg">
<path d="M12.5 22.75C11.0938 22.75 9.77656 22.4828 8.54844 21.9484C7.32031 21.4141 6.25156 20.6922 5.34219 19.7828C4.43281 18.8734 3.71094 17.8047 3.17656 16.5766C2.64219 15.3484 2.375 14.0312 2.375 12.625C2.375 11.2187 2.64219 9.90155 3.17656 8.67343C3.71094 7.4453 4.43281 6.37655 5.34219 5.46718C6.25156 4.5578 7.32031 3.83593 8.54844 3.30155C9.77656 2.76718 11.0938 2.49999 12.5 2.49999C13.9063 2.49999 15.2234 2.76718 16.4516 3.30155C17.6797 3.83593 18.7484 4.5578 19.6578 5.46718C20.5672 6.37655 21.2891 7.4453 21.8234 8.67343C22.3578 9.90155 22.625 11.2187 22.625 12.625C22.625 14.0312 22.3578 15.3484 21.8234 16.5766C21.2891 17.8047 20.5672 18.8734 19.6578 19.7828C18.7484 20.6922 17.6797 21.4141 16.4516 21.9484C15.2234 22.4828 13.9063 22.75 12.5 22.75ZM15.65 17.35L17.225 15.775L13.625 12.175V6.99999H11.375V13.075L15.65 17.35ZM5.3 0.643738L6.875 2.21874L2.09375 6.99999L0.51875 5.42499L5.3 0.643738ZM19.7 0.643738L24.4813 5.42499L22.9063 6.99999L18.125 2.21874L19.7 0.643738ZM12.5 20.5C14.6938 20.5 16.5547 19.7359 18.0828 18.2078C19.6109 16.6797 20.375 14.8187 20.375 12.625C20.375 10.4312 19.6109 8.5703 18.0828 7.04218C16.5547 5.51405 14.6938 4.74999 12.5 4.74999C10.3063 4.74999 8.44531 5.51405 6.91719 7.04218C5.38906 8.5703 4.625 10.4312 4.625 12.625C4.625 14.8187 5.38906 16.6797 6.91719 18.2078C8.44531 19.7359 10.3063 20.5 12.5 20.5Z" fill="#E8E9E9"/>
</svg>
