<svg width="19" height="23" viewBox="0 0 19 23" fill="none" xmlns="http://www.w3.org/2000/svg">
<path d="M9.5 11.5C10.1187 11.5 10.6484 11.2797 11.0891 10.8391C11.5297 10.3984 11.75 9.86875 11.75 9.25C11.75 8.63125 11.5297 8.10156 11.0891 7.66094C10.6484 7.22031 10.1187 7 9.5 7C8.88125 7 8.35156 7.22031 7.91094 7.66094C7.47031 8.10156 7.25 8.63125 7.25 9.25C7.25 9.86875 7.47031 10.3984 7.91094 10.8391C8.35156 11.2797 8.88125 11.5 9.5 11.5ZM9.5 19.7688C11.7875 17.6688 13.4844 15.7609 14.5906 14.0453C15.6969 12.3297 16.25 10.8062 16.25 9.475C16.25 7.43125 15.5984 5.75781 14.2953 4.45469C12.9922 3.15156 11.3938 2.5 9.5 2.5C7.60625 2.5 6.00781 3.15156 4.70469 4.45469C3.40156 5.75781 2.75 7.43125 2.75 9.475C2.75 10.8062 3.30313 12.3297 4.40938 14.0453C5.51562 15.7609 7.2125 17.6688 9.5 19.7688ZM9.5 22.75C6.48125 20.1812 4.22656 17.7953 2.73594 15.5922C1.24531 13.3891 0.5 11.35 0.5 9.475C0.5 6.6625 1.40469 4.42188 3.21406 2.75313C5.02344 1.08438 7.11875 0.25 9.5 0.25C11.8812 0.25 13.9766 1.08438 15.7859 2.75313C17.5953 4.42188 18.5 6.6625 18.5 9.475C18.5 11.35 17.7547 13.3891 16.2641 15.5922C14.7734 17.7953 12.5188 20.1812 9.5 22.75Z" fill="#E8E9E9"/>
</svg>
