<svg width="163" height="64" viewBox="0 0 163 64" fill="none" xmlns="http://www.w3.org/2000/svg">
<path d="M15.52 47L26.68 19H33.08L44.16 47H36.28L31.48 34C31.2133 33.28 30.9733 32.6133 30.76 32C30.5467 31.3867 30.3467 30.7867 30.16 30.2C29.9733 29.6133 29.7867 29.0133 29.6 28.4C29.44 27.7867 29.2933 27.12 29.16 26.4L30.44 26.36C30.28 27.1333 30.1067 27.8267 29.92 28.44C29.76 29.0533 29.5867 29.64 29.4 30.2C29.2133 30.76 29 31.3467 28.76 31.96C28.5467 32.5733 28.3067 33.2533 28.04 34L23.24 47H15.52ZM20.96 42.36L23.32 36.76H36.28L38.48 42.36H20.96ZM53.5253 47.4C51.312 47.4 49.3653 47.0533 47.6853 46.36C46.0053 45.6667 44.6986 44.7733 43.7653 43.68L48.1253 39.92C48.9786 40.6933 49.9386 41.2667 51.0053 41.64C52.0986 42.0133 53.0586 42.2 53.8853 42.2C54.1786 42.2 54.4453 42.1733 54.6853 42.12C54.9253 42.0667 55.112 41.9867 55.2453 41.88C55.4053 41.7467 55.5253 41.6133 55.6053 41.48C55.712 41.32 55.7653 41.1467 55.7653 40.96C55.7653 40.5067 55.5386 40.16 55.0853 39.92C54.8453 39.8133 54.4453 39.68 53.8853 39.52C53.352 39.3333 52.632 39.1333 51.7253 38.92C50.6053 38.6267 49.6053 38.28 48.7253 37.88C47.8453 37.4533 47.0986 36.96 46.4853 36.4C45.8986 35.84 45.432 35.2 45.0853 34.48C44.7653 33.7333 44.6053 32.92 44.6053 32.04C44.6053 30.9733 44.8453 30.0267 45.3253 29.2C45.8053 28.3733 46.472 27.6667 47.3253 27.08C48.1786 26.4667 49.1386 26.0133 50.2053 25.72C51.272 25.4 52.3653 25.24 53.4853 25.24C54.7386 25.24 55.912 25.3733 57.0053 25.64C58.1253 25.88 59.1653 26.24 60.1253 26.72C61.112 27.1733 61.992 27.7333 62.7653 28.4L58.9253 32.64C58.472 32.24 57.9386 31.8667 57.3253 31.52C56.7386 31.1733 56.1253 30.8933 55.4853 30.68C54.8453 30.44 54.2453 30.32 53.6853 30.32C53.3386 30.32 53.0453 30.3467 52.8053 30.4C52.5653 30.4533 52.3653 30.5333 52.2053 30.64C52.0453 30.7467 51.9253 30.88 51.8453 31.04C51.7653 31.2 51.7253 31.3733 51.7253 31.56C51.7253 31.8 51.792 32.0267 51.9253 32.24C52.0586 32.4533 52.272 32.6267 52.5653 32.76C52.8053 32.8933 53.2053 33.0667 53.7653 33.28C54.352 33.4667 55.192 33.7067 56.2853 34C57.512 34.3467 58.5786 34.7467 59.4853 35.2C60.392 35.6533 61.1253 36.1733 61.6853 36.76C62.0853 37.2133 62.392 37.72 62.6053 38.28C62.8186 38.8133 62.9253 39.4133 62.9253 40.08C62.9253 41.4933 62.512 42.76 61.6853 43.88C60.8853 44.9733 59.7786 45.84 58.3653 46.48C56.952 47.0933 55.3386 47.4 53.5253 47.4ZM67.4734 47V20.28H74.9134V47H67.4734ZM63.9534 32V25.68H78.6334V32H63.9534ZM82.0344 47V25.68H88.9944L89.3944 32.68L87.8344 31.48C88.181 30.3067 88.7144 29.2533 89.4344 28.32C90.181 27.36 91.0744 26.6133 92.1144 26.08C93.1544 25.52 94.2477 25.24 95.3944 25.24C95.8744 25.24 96.3277 25.28 96.7544 25.36C97.181 25.4133 97.581 25.4933 97.9544 25.6L95.9144 33.84C95.621 33.6533 95.2077 33.4933 94.6744 33.36C94.141 33.2 93.5677 33.12 92.9544 33.12C92.421 33.12 91.941 33.2133 91.5144 33.4C91.0877 33.56 90.7277 33.8 90.4344 34.12C90.141 34.44 89.9144 34.8267 89.7544 35.28C89.5944 35.7067 89.5144 36.2133 89.5144 36.8V47H82.0344ZM101.126 47V25.68H108.566V47H101.126ZM104.846 21.64C103.486 21.64 102.433 21.3333 101.686 20.72C100.939 20.08 100.566 19.1867 100.566 18.04C100.566 16.9733 100.939 16.1067 101.686 15.44C102.459 14.7467 103.513 14.4 104.846 14.4C106.179 14.4 107.219 14.72 107.966 15.36C108.739 15.9733 109.126 16.8667 109.126 18.04C109.126 19.1067 108.739 19.9733 107.966 20.64C107.193 21.3067 106.153 21.64 104.846 21.64ZM126.872 47L123.352 41.04L120.592 37.16L112.432 25.68H121.232L124.512 31.2L127.512 35.32L135.632 47H126.872ZM112.112 47L120.792 34.56L124.712 39.2L120.872 47H112.112ZM126.712 38.16L122.832 33.52L126.592 25.68H135.352L126.712 38.16ZM141.541 47.44C140.341 47.44 139.407 47.1067 138.741 46.44C138.101 45.7733 137.781 44.8267 137.781 43.6C137.781 42.48 138.127 41.56 138.821 40.84C139.514 40.12 140.421 39.76 141.541 39.76C142.714 39.76 143.634 40.0933 144.301 40.76C144.967 41.4267 145.301 42.3733 145.301 43.6C145.301 44.72 144.954 45.64 144.261 46.36C143.567 47.08 142.661 47.44 141.541 47.44Z" fill="#FFCA5F"/>
</svg>
